<mxfile host="app.diagrams.net" modified="2024-01-02T10:02:50.086Z" agent="Mozilla/5.0 (Windows NT 10.0; Win64; x64) AppleWebKit/537.36 (KHTML, like Gecko) Chrome/120.0.0.0 Safari/537.36 Edg/120.0.0.0" etag="XSGDO44LxYPBNabS8dg0" version="22.1.16" type="github">
  <diagram id="6a731a19-8d31-9384-78a2-239565b7b9f0" name="Page-1">
    <mxGraphModel dx="547" dy="1191" grid="1" gridSize="10" guides="1" tooltips="1" connect="1" arrows="1" fold="1" page="1" pageScale="1" pageWidth="1169" pageHeight="827" background="none" math="0" shadow="0">
      <root>
        <mxCell id="0" />
        <mxCell id="1" parent="0" />
        <mxCell id="2" value="简介" style="shape=mxgraph.flowchart.terminator;strokeWidth=2;gradientColor=none;gradientDirection=north;fontStyle=0;html=1;" parent="1" vertex="1">
          <mxGeometry x="254.5" y="-80" width="120" height="30" as="geometry" />
        </mxCell>
        <mxCell id="3" value="进行自我认知测试" style="shape=mxgraph.flowchart.data;strokeWidth=2;gradientColor=none;gradientDirection=north;fontStyle=0;html=1;" parent="1" vertex="1">
          <mxGeometry x="250" y="-10" width="144" height="50" as="geometry" />
        </mxCell>
        <mxCell id="7" style="fontStyle=1;strokeColor=#003366;strokeWidth=1;html=1;" parent="1" source="2" target="3" edge="1">
          <mxGeometry relative="1" as="geometry" />
        </mxCell>
        <mxCell id="murgDG-3jftQwtaEU3St-58" value="" style="fontStyle=1;strokeColor=#003366;strokeWidth=1;html=1;" edge="1" parent="1" source="3" target="murgDG-3jftQwtaEU3St-57">
          <mxGeometry relative="1" as="geometry">
            <mxPoint x="320" y="210" as="sourcePoint" />
            <mxPoint x="320" y="250" as="targetPoint" />
          </mxGeometry>
        </mxCell>
        <mxCell id="murgDG-3jftQwtaEU3St-57" value="进行AI情景测试" style="shape=mxgraph.flowchart.data;strokeWidth=2;gradientColor=none;gradientDirection=north;fontStyle=0;html=1;" vertex="1" parent="1">
          <mxGeometry x="254.5" y="80" width="139.5" height="50" as="geometry" />
        </mxCell>
        <mxCell id="murgDG-3jftQwtaEU3St-60" value="" style="fontStyle=1;strokeColor=#003366;strokeWidth=1;html=1;" edge="1" parent="1" source="murgDG-3jftQwtaEU3St-57" target="murgDG-3jftQwtaEU3St-59">
          <mxGeometry relative="1" as="geometry">
            <mxPoint x="316" y="190" as="sourcePoint" />
            <mxPoint x="318" y="250" as="targetPoint" />
          </mxGeometry>
        </mxCell>
        <mxCell id="murgDG-3jftQwtaEU3St-61" value="" style="edgeStyle=orthogonalEdgeStyle;rounded=0;orthogonalLoop=1;jettySize=auto;html=1;" edge="1" parent="1" source="murgDG-3jftQwtaEU3St-59">
          <mxGeometry relative="1" as="geometry">
            <mxPoint x="325.5" y="260" as="targetPoint" />
          </mxGeometry>
        </mxCell>
        <mxCell id="murgDG-3jftQwtaEU3St-62" value="" style="edgeStyle=orthogonalEdgeStyle;rounded=0;orthogonalLoop=1;jettySize=auto;html=1;" edge="1" parent="1" source="murgDG-3jftQwtaEU3St-59">
          <mxGeometry relative="1" as="geometry">
            <mxPoint x="325.5" y="260" as="targetPoint" />
          </mxGeometry>
        </mxCell>
        <mxCell id="murgDG-3jftQwtaEU3St-65" value="否，播放强针对性视频讲解" style="edgeLabel;html=1;align=center;verticalAlign=middle;resizable=0;points=[];" vertex="1" connectable="0" parent="murgDG-3jftQwtaEU3St-62">
          <mxGeometry x="-0.1309" y="-1" relative="1" as="geometry">
            <mxPoint as="offset" />
          </mxGeometry>
        </mxCell>
        <mxCell id="murgDG-3jftQwtaEU3St-59" value="两者结果统一？" style="shape=mxgraph.flowchart.decision;strokeWidth=2;gradientColor=none;gradientDirection=north;fontStyle=0;html=1;" vertex="1" parent="1">
          <mxGeometry x="276.5" y="160" width="98" height="57" as="geometry" />
        </mxCell>
        <mxCell id="murgDG-3jftQwtaEU3St-63" value="" style="endArrow=classic;html=1;rounded=0;exitX=1;exitY=0.5;exitDx=0;exitDy=0;exitPerimeter=0;entryX=0.905;entryY=0.5;entryDx=0;entryDy=0;entryPerimeter=0;" edge="1" parent="1" source="murgDG-3jftQwtaEU3St-59" target="3">
          <mxGeometry relative="1" as="geometry">
            <mxPoint x="400" y="120" as="sourcePoint" />
            <mxPoint x="500" y="120" as="targetPoint" />
            <Array as="points">
              <mxPoint x="440" y="190" />
              <mxPoint x="440" y="15" />
            </Array>
          </mxGeometry>
        </mxCell>
        <mxCell id="murgDG-3jftQwtaEU3St-64" value="是，进行下一维度测试" style="edgeLabel;resizable=0;html=1;align=center;verticalAlign=middle;" connectable="0" vertex="1" parent="murgDG-3jftQwtaEU3St-63">
          <mxGeometry relative="1" as="geometry" />
        </mxCell>
      </root>
    </mxGraphModel>
  </diagram>
</mxfile>
